<svg width="24" height="24" viewBox="0 0 24 24" fill="none" xmlns="http://www.w3.org/2000/svg">
  <!-- 左页 -->
  <path d="M12 5 C8 4 4 4 2.5 6 L2.5 16.5 C4 18.5 8 17.5 12 17" stroke="#2318da" stroke-width="1.5" stroke-linejoin="round"/>
  <!-- 右页 -->
  <path d="M12 5 C16 4 20 4 21.5 6 L21.5 16.5 C20 18.5 16 17.5 12 17" stroke="#2318da" stroke-width="1.5" stroke-linejoin="round"/>
  <!-- 书脊 -->
  <line x1="12" y1="5" x2="12" y2="17" stroke="#2318da" stroke-width="1.5"/>
  <!-- 左页文字行 -->
  <line x1="5.5" y1="8.5" x2="10" y2="8.5" stroke="#2318da" stroke-width="1.2" stroke-linecap="round"/>
  <line x1="5.5" y1="11.5" x2="10" y2="11.5" stroke="#2318da" stroke-width="1.2" stroke-linecap="round"/>
  <line x1="5.5" y1="14.5" x2="8" y2="14.5" stroke="#2318da" stroke-width="1.2" stroke-linecap="round"/>
  <!-- 右页文字行 -->
  <line x1="14" y1="8.5" x2="18.5" y2="8.5" stroke="#2318da" stroke-width="1.2" stroke-linecap="round"/>
  <line x1="14" y1="11.5" x2="18.5" y2="11.5" stroke="#2318da" stroke-width="1.2" stroke-linecap="round"/>
  <line x1="14" y1="14.5" x2="16" y2="14.5" stroke="#2318da" stroke-width="1.2" stroke-linecap="round"/>
</svg>
