<svg width="28" height="28" viewBox="0 0 28 28" fill="none" xmlns="http://www.w3.org/2000/svg">
  <!-- 脸轮廓（除头顶两撮毛外左右镜像对称） -->
  <path d="
    M14 25
    C16 25 18 24 20 23
    L23.5 24 L21.5 20
    L24 18.5 L21.5 16
    L23 14 L23 6.5
    L17.5 11
    L16 7 L14 9 L11.5 7.5
    L10.5 11
    L5 6.5 L5 14
    L6.5 16
    L4 18.5 L6.5 20
    L4.5 24 L8 23
    C10 24 12 25 14 25 Z
  " stroke="#2318da" stroke-width="2" stroke-linejoin="round" fill="none"/>
  <!-- 眼睛（竖线） -->
  <line x1="10.5" y1="14" x2="10.5" y2="18" stroke="#2318da" stroke-width="2.2" stroke-linecap="round"/>
  <line x1="17.5" y1="14" x2="17.5" y2="18" stroke="#2318da" stroke-width="2.2" stroke-linecap="round"/>
</svg>
