<svg width="28" height="28" viewBox="0 0 28 28" fill="none" xmlns="http://www.w3.org/2000/svg">
<circle cx="7" cy="11" r="0.5" fill="#74AEB3" stroke="#74AEB3"/>
<circle cx="3" cy="11" r="0.5" fill="#74AEB3" stroke="#74AEB3"/>
<circle cx="7" cy="3" r="0.5" fill="#74AEB3" stroke="#74AEB3"/>
<circle cx="11" cy="3" r="0.5" fill="#74AEB3" stroke="#74AEB3"/>
<circle cx="18" cy="3" r="0.5" fill="#74AEB3" stroke="#74AEB3"/>
<circle cx="24" cy="3" r="0.5" fill="#74AEB3" stroke="#74AEB3"/>
<circle cx="24" cy="11" r="0.5" fill="#74AEB3" stroke="#74AEB3"/>
<circle cx="18" cy="11" r="0.5" fill="#74AEB3" stroke="#74AEB3"/>
<circle cx="10" cy="25" r="0.5" fill="#74AEB3" stroke="#74AEB3"/>
<circle cx="4" cy="25" r="0.5" fill="#74AEB3" stroke="#74AEB3"/>
<circle cx="10" cy="18" r="0.5" fill="#74AEB3" stroke="#74AEB3"/>
<circle cx="4" cy="18" r="0.5" fill="#74AEB3" stroke="#74AEB3"/>
<path d="M6 10H5C5.55228 10 6 9.55228 6 9V10Z" fill="#74AEB3"/>
<path d="M8 4H9C8.44772 4 8 4.44772 8 5V4Z" fill="#74AEB3"/>
<path d="M22 4H23C22.4477 4 22 4.44772 22 5V4Z" fill="#74AEB3"/>
<path d="M20 4V5C20 4.44772 19.5523 4 19 4H20Z" fill="#74AEB3"/>
<path d="M20 10H19C19.5523 10 20 9.55228 20 9V10Z" fill="#74AEB3"/>
<path d="M5 19H6C5.44772 19 5 19.4477 5 20V19Z" fill="#74AEB3"/>
<path d="M9 19V20C9 19.4477 8.55228 19 8 19H9Z" fill="#74AEB3"/>
<path d="M22 10V9C22 9.55228 22.4477 10 23 10H22Z" fill="#74AEB3"/>
<line x1="7" y1="3" x2="7" y2="11" stroke="#74AEB3" stroke-width="2"/>
<line x1="21" y1="4" x2="21" y2="10" stroke="#74AEB3" stroke-width="2"/>
<line x1="4" y1="18" x2="4" y2="25" stroke="#74AEB3" stroke-width="2"/>
<line x1="10" y1="18" x2="10" y2="25" stroke="#74AEB3" stroke-width="2"/>
<line x1="11" y1="3" x2="7" y2="3" stroke="#74AEB3" stroke-width="2"/>
<line x1="24" y1="3" x2="18" y2="3" stroke="#74AEB3" stroke-width="2"/>
<line x1="24" y1="11" x2="18" y2="11" stroke="#74AEB3" stroke-width="2"/>
<line x1="10" y1="18" x2="4" y2="18" stroke="#74AEB3" stroke-width="2"/>
<line x1="7" y1="11" x2="3" y2="11" stroke="#74AEB3" stroke-width="2"/>
<path d="M18.5 17.5V21.5M18.5 25.5V21.5M18.5 21.5L22.5 18.5M18.5 21.5L23 25.5" stroke="#74AEB3" stroke-width="2"/>
</svg>
